<?xml version="1.0" encoding="UTF-8" standalone="no"?>
<!-- Created with Inkscape (http://www.inkscape.org/) -->

<svg
   xmlns:dc="http://purl.org/dc/elements/1.1/"
   xmlns:cc="http://creativecommons.org/ns#"
   xmlns:rdf="http://www.w3.org/1999/02/22-rdf-syntax-ns#"
   xmlns:svg="http://www.w3.org/2000/svg"
   xmlns="http://www.w3.org/2000/svg"
   xmlns:xlink="http://www.w3.org/1999/xlink"
   xmlns:sodipodi="http://sodipodi.sourceforge.net/DTD/sodipodi-0.dtd"
   xmlns:inkscape="http://www.inkscape.org/namespaces/inkscape"
   width="793.70081"
   height="1122.5197"
   viewBox="0 0 210 297"
   version="1.1"
   id="svg8"
   inkscape:version="0.92.3 (2405546, 2018-03-11)"
   sodipodi:docname="Logo_One.svg">
  <defs
     id="defs2" />
  <sodipodi:namedview
     id="base"
     pagecolor="#ffffff"
     bordercolor="#666666"
     borderopacity="1.0"
     inkscape:pageopacity="0.0"
     inkscape:pageshadow="2"
     inkscape:zoom="0.12374369"
     inkscape:cx="358.41885"
     inkscape:cy="998.28703"
     inkscape:document-units="px"
     inkscape:current-layer="layer1"
     showgrid="false"
     inkscape:window-width="1440"
     inkscape:window-height="837"
     inkscape:window-x="-8"
     inkscape:window-y="-8"
     inkscape:window-maximized="1"
     units="px"
     inkscape:pagecheckerboard="true"
     showborder="false" />
  <metadata
     id="metadata5">
    <rdf:RDF>
      <cc:Work
         rdf:about="">
        <dc:format>image/svg+xml</dc:format>
        <dc:type
           rdf:resource="http://purl.org/dc/dcmitype/StillImage" />
        <dc:title></dc:title>
      </cc:Work>
    </rdf:RDF>
  </metadata>
  <g
     inkscape:label="Layer 1"
     inkscape:groupmode="layer"
     id="layer1">
    <image
       sodipodi:absref="C:\Users\5cstephe\source\repos\TrialManager\Branding\Assets\GreaterSwissMountainDog.jpeg"
       xlink:href="C:\Users\5cstephe\source\repos\TrialManager\Branding\Assets\GreaterSwissMountainDog.jpeg"
       width="1676.4"
       height="1117.6"
       preserveAspectRatio="none"
       id="image4526"
       x="-790.57501"
       y="-445.4964"
       style="opacity:0.088" />
    <path
       style="fill:none;stroke:#000000;stroke-width:13.22916698;stroke-linecap:butt;stroke-linejoin:miter;stroke-miterlimit:4;stroke-dasharray:none;stroke-opacity:1"
       d="m 604.56367,-226.31374 c -179.60512,-168.91434 -347.98492,-91.94071 -347.98492,-91.94071 -61.47199,-4.81085 -115.46044,28.33057 -115.46044,28.33057 -98.889725,28.86511 -132.0311461,117.06405 -132.0311461,117.06405 -55.0575229,28.86511 -60.9374519,114.391358 -60.9374519,114.391358 -3.207234,25.123336 -60.937452,63.342878 -60.937452,63.342878 -91.40618,43.030394 -91.40618,48.643055 -91.40618,48.643055 -29.93418,24.588795 -113.05501,66.817379 -113.05501,66.817379 0,0 -22.71791,21.38156 -4.81085,55.32479 0,0 12.87526,31.00406 37.06573,64.26597 0,0 18.52084,8.69345 26.45834,33.63988 0,0 23.43452,57.83035 133.80357,65.76785 0,0 -24.19048,63.5 26.45833,105.07738 0,0 32.505953,19.65477 89.9583338,15.875 0,0 112.6369062,-24.94642 133.0476162,-49.89285 0,0 20.41072,18.89881 44.60119,1.5119 l 52.16072,-4.53571 214.68982,103.44657 c 0,0 488.56869,-236.26627 168.3798,-737.12936 z"
       id="path10"
       inkscape:connector-curvature="0"
       sodipodi:nodetypes="cccc" />
    <path
       style="fill:none;stroke:#000000;stroke-width:7.9375;stroke-linecap:butt;stroke-linejoin:miter;stroke-miterlimit:4;stroke-dasharray:none;stroke-opacity:1"
       d="m -26.080357,-42.044651 c 0,0 15.875,-130.401779 68.791666,-40.065476 0,0 -12.473213,48.758929 -68.791666,40.065476 z"
       id="path4520"
       inkscape:connector-curvature="0" />
  </g>
</svg>
