<?xml version="1.0" encoding="UTF-8" standalone="no"?>
<!-- Created with Inkscape (http://www.inkscape.org/) -->

<svg
   xmlns:dc="http://purl.org/dc/elements/1.1/"
   xmlns:cc="http://creativecommons.org/ns#"
   xmlns:rdf="http://www.w3.org/1999/02/22-rdf-syntax-ns#"
   xmlns:svg="http://www.w3.org/2000/svg"
   xmlns="http://www.w3.org/2000/svg"
   xmlns:sodipodi="http://sodipodi.sourceforge.net/DTD/sodipodi-0.dtd"
   xmlns:inkscape="http://www.inkscape.org/namespaces/inkscape"
   width="512"
   height="512"
   viewBox="0 0 135.46666 135.46667"
   version="1.1"
   id="svg8"
   inkscape:version="0.92.4 (5da689c313, 2019-01-14)"
   sodipodi:docname="Logo_One - Copy.svg">
  <defs
     id="defs2" />
  <sodipodi:namedview
     id="base"
     pagecolor="#ffffff"
     bordercolor="#666666"
     borderopacity="1.0"
     inkscape:pageopacity="0.0"
     inkscape:pageshadow="2"
     inkscape:zoom="0.061871843"
     inkscape:cx="-4658.0829"
     inkscape:cy="-1138.4717"
     inkscape:document-units="px"
     inkscape:current-layer="layer1"
     showgrid="false"
     inkscape:window-width="1366"
     inkscape:window-height="745"
     inkscape:window-x="-8"
     inkscape:window-y="-8"
     inkscape:window-maximized="1"
     inkscape:pagecheckerboard="true"
     units="px" />
  <metadata
     id="metadata5">
    <rdf:RDF>
      <cc:Work
         rdf:about="">
        <dc:format>image/svg+xml</dc:format>
        <dc:type
           rdf:resource="http://purl.org/dc/dcmitype/StillImage" />
        <dc:title></dc:title>
      </cc:Work>
    </rdf:RDF>
  </metadata>
  <g
     inkscape:label="Layer 1"
     inkscape:groupmode="layer"
     id="layer1"
     transform="translate(0,-161.53332)">
    <g
       id="g822"
       transform="matrix(0.11687851,0,0,0.11687851,38.865756,217.26934)">
      <path
         inkscape:connector-curvature="0"
         id="path816"
         d="M 823.19014,44.697566 604.76191,-223.85119 C 440.72024,-410.57143 164.04167,-307.00595 164.04167,-307.00595 71.059524,-280.54762 10.583333,-173.95833 10.583333,-173.95833 -63.5,-138.42857 -50.64881,-60.565477 -50.64881,-60.565477 -84.666667,8.9821426 -189.74405,43.755952 -189.74405,43.755952 -284.23809,117.83928 -319.0119,119.35119 -319.0119,119.35119 c 0,0 -37.41965,47.24702 30.99404,112.25893 0,0 35.52976,111.50298 166.30953,107.72321 0,0 -31.75,134.55953 72.571425,110.36905 0,0 13.607143,35.52976 271.386905,-44.60119 l 248.14437,135.64862 c 0,0 354.93392,-89.80256 352.79577,-496.052244 z"
         style="fill:none;stroke:#000000;stroke-width:6.61458349;stroke-linecap:butt;stroke-linejoin:miter;stroke-miterlimit:4;stroke-dasharray:none;stroke-opacity:1" />
      <path
         inkscape:connector-curvature="0"
         id="path818"
         d="m -22.985179,-44.035916 c 0,0 12.294398,-113.322274 64.144685,-39.55589 -19.777946,48.643056 -64.144685,39.55589 -64.144685,39.55589 z"
         style="fill:none;stroke:#000000;stroke-width:13.22916698;stroke-linecap:butt;stroke-linejoin:miter;stroke-miterlimit:4;stroke-dasharray:none;stroke-opacity:1" />
    </g>
  </g>
</svg>
