<?xml version="1.0" encoding="UTF-8" standalone="no"?>
<!-- Created with Inkscape (http://www.inkscape.org/) -->

<svg
   xmlns:dc="http://purl.org/dc/elements/1.1/"
   xmlns:cc="http://creativecommons.org/ns#"
   xmlns:rdf="http://www.w3.org/1999/02/22-rdf-syntax-ns#"
   xmlns:svg="http://www.w3.org/2000/svg"
   xmlns="http://www.w3.org/2000/svg"
   xmlns:sodipodi="http://sodipodi.sourceforge.net/DTD/sodipodi-0.dtd"
   xmlns:inkscape="http://www.inkscape.org/namespaces/inkscape"
   width="793.70081"
   height="1122.5197"
   viewBox="0 0 210 297"
   version="1.1"
   id="svg8"
   inkscape:version="0.92.3 (2405546, 2018-03-11)"
   sodipodi:docname="Splash.svg"
   inkscape:export-filename="C:\Users\5cstephe\source\repos\TrialManager\Branding\Concepts\SprintOne\Splash\Splash_Two.png"
   inkscape:export-xdpi="96"
   inkscape:export-ydpi="96">
  <defs
     id="defs2" />
  <sodipodi:namedview
     id="base"
     pagecolor="#ffffff"
     bordercolor="#666666"
     borderopacity="1.0"
     inkscape:pageopacity="0.0"
     inkscape:pageshadow="2"
     inkscape:zoom="0.49497475"
     inkscape:cx="550.20526"
     inkscape:cy="413.4959"
     inkscape:document-units="px"
     inkscape:current-layer="layer1"
     showgrid="false"
     inkscape:window-width="1440"
     inkscape:window-height="837"
     inkscape:window-x="-8"
     inkscape:window-y="-8"
     inkscape:window-maximized="1"
     units="px"
     inkscape:pagecheckerboard="true"
     showborder="false" />
  <metadata
     id="metadata5">
    <rdf:RDF>
      <cc:Work
         rdf:about="">
        <dc:format>image/svg+xml</dc:format>
        <dc:type
           rdf:resource="http://purl.org/dc/dcmitype/StillImage" />
        <dc:title />
      </cc:Work>
    </rdf:RDF>
  </metadata>
  <g
     inkscape:label="Layer 1"
     inkscape:groupmode="layer"
     id="layer1">
    <path
       style="fill:none;stroke:#000000;stroke-width:6.61458349;stroke-linecap:butt;stroke-linejoin:miter;stroke-miterlimit:4;stroke-dasharray:none;stroke-opacity:1"
       d="M 251.91765,97.502776 C 203.79004,52.243455 158.67042,72.867954 158.67042,72.867954 c -16.47225,-1.289031 -30.93918,7.590962 -30.93918,7.590962 -26.49883,7.734193 -35.379512,31.366424 -35.379512,31.366424 -14.753398,7.73418 -16.329004,30.65029 -16.329004,30.65029 -0.859425,6.73161 -16.329005,16.97224 -16.329005,16.97224 -24.493511,11.52966 -24.493511,13.03354 -24.493511,13.03354 -8.021265,6.58838 -30.2946096,17.90321 -30.2946096,17.90321 0,0 -6.0875722,5.72902 -1.2891317,14.82385 0,0 3.4500963,8.3073 9.9322583,17.21958 0,0 4.962908,2.32934 7.089873,9.01355 0,0 6.279588,15.49521 35.854452,17.62199 0,0 -6.482161,17.01435 7.089863,28.15468 0,0 8.710414,5.26636 24.105542,4.25359 0,0 30.182575,-6.6842 35.651895,-13.3684 0,0 5.46932,5.06379 11.95148,0.40509 l 13.97717,-1.2153 57.52902,27.71772 c 0,0 130.91853,-63.30575 45.11963,-197.508194 z"
       id="path10"
       inkscape:connector-curvature="0"
       sodipodi:nodetypes="cccc"
       inkscape:export-xdpi="96"
       inkscape:export-ydpi="96" />
    <path
       style="fill:none;stroke:#000000;stroke-width:5.29166651;stroke-linecap:butt;stroke-linejoin:miter;stroke-miterlimit:4;stroke-dasharray:none;stroke-opacity:1"
       d="m 88.217472,145.28958 c 0,0 4.253919,-34.94016 18.433638,-10.73524 0,0 -3.34236,13.06459 -18.433638,10.73524 z"
       id="path4520"
       inkscape:connector-curvature="0"
       inkscape:export-xdpi="96"
       inkscape:export-ydpi="96" />
  </g>
</svg>
