<?xml version="1.0" encoding="UTF-8" standalone="no"?>
<!-- Created with Inkscape (http://www.inkscape.org/) -->

<svg
   xmlns:dc="http://purl.org/dc/elements/1.1/"
   xmlns:cc="http://creativecommons.org/ns#"
   xmlns:rdf="http://www.w3.org/1999/02/22-rdf-syntax-ns#"
   xmlns:svg="http://www.w3.org/2000/svg"
   xmlns="http://www.w3.org/2000/svg"
   xmlns:sodipodi="http://sodipodi.sourceforge.net/DTD/sodipodi-0.dtd"
   xmlns:inkscape="http://www.inkscape.org/namespaces/inkscape"
   width="793.70081"
   height="1122.5197"
   viewBox="0 0 210 297"
   version="1.1"
   id="svg8"
   inkscape:version="0.92.3 (2405546, 2018-03-11)"
   sodipodi:docname="Splash.svg">
  <defs
     id="defs2" />
  <sodipodi:namedview
     id="base"
     pagecolor="#ffffff"
     bordercolor="#666666"
     borderopacity="1.0"
     inkscape:pageopacity="0.0"
     inkscape:pageshadow="2"
     inkscape:zoom="0.0875"
     inkscape:cx="2921.848"
     inkscape:cy="-1290.0136"
     inkscape:document-units="px"
     inkscape:current-layer="layer1"
     showgrid="false"
     inkscape:pagecheckerboard="true"
     showborder="false"
     units="px"
     inkscape:window-width="1440"
     inkscape:window-height="837"
     inkscape:window-x="-8"
     inkscape:window-y="-8"
     inkscape:window-maximized="1" />
  <metadata
     id="metadata5">
    <rdf:RDF>
      <cc:Work
         rdf:about="">
        <dc:format>image/svg+xml</dc:format>
        <dc:type
           rdf:resource="http://purl.org/dc/dcmitype/StillImage" />
        <dc:title></dc:title>
      </cc:Work>
    </rdf:RDF>
  </metadata>
  <g
     inkscape:label="Layer 1"
     inkscape:groupmode="layer"
     id="layer1">
    <rect
       style="opacity:1;fill:none;stroke:#000000;stroke-width:13.22916698;stroke-miterlimit:4;stroke-dasharray:none"
       id="rect815"
       width="543.09235"
       height="167.06548"
       x="-159.50595"
       y="42.999992"
       ry="41.577381"
       inkscape:export-xdpi="19.082861"
       inkscape:export-ydpi="19.082861" />
    <rect
       ry="41.577381"
       y="210.06546"
       x="-159.50595"
       height="167.06548"
       width="543.09235"
       id="rect817"
       style="opacity:1;fill:none;stroke:#000000;stroke-width:13.22916698;stroke-miterlimit:4;stroke-dasharray:none"
       inkscape:export-xdpi="19.082861"
       inkscape:export-ydpi="19.082861" />
    <rect
       style="opacity:1;fill:none;stroke:#000000;stroke-width:13.22916698;stroke-miterlimit:4;stroke-dasharray:none"
       id="rect819"
       width="543.09235"
       height="167.06548"
       x="-159.50595"
       y="377.13092"
       ry="41.577381"
       inkscape:export-xdpi="19.082861"
       inkscape:export-ydpi="19.082861" />
    <rect
       ry="41.577381"
       y="544.19641"
       x="-159.50595"
       height="167.06548"
       width="543.09235"
       id="rect821"
       style="opacity:1;fill:none;stroke:#000000;stroke-width:13.22916698;stroke-miterlimit:4;stroke-dasharray:none"
       inkscape:export-xdpi="19.082861"
       inkscape:export-ydpi="19.082861" />
    <path
       style="fill:none;stroke:#000000;stroke-width:13.2291667;stroke-linecap:butt;stroke-linejoin:miter;stroke-miterlimit:4;stroke-dasharray:none;stroke-opacity:1"
       d="M -12.041685,86.20574 C -35.157079,64.598605 -56.827766,74.444893 -56.827766,74.444893 c -7.911524,-0.615393 -14.859905,3.623985 -14.859905,3.623985 -12.727227,3.692358 -16.992567,14.974565 -16.992567,14.974565 -7.08597,3.692353 -7.84272,14.632677 -7.84272,14.632677 -0.41278,3.21371 -7.842732,8.10267 -7.842732,8.10267 -11.76408,5.50434 -11.76408,6.2223 -11.76408,6.2223 -3.85257,3.14534 -14.55032,8.54713 -14.55032,8.54713 0,0 -2.92383,2.73507 -0.61916,7.07701 0,0 1.65705,3.96596 4.7704,8.22076 0,0 2.38365,1.11203 3.40523,4.30313 0,0 3.01605,7.39753 17.22067,8.41286 0,0 -3.11333,8.12277 3.40523,13.44126 0,0 4.183552,2.5142 11.577742,2.03069 0,0 14.496512,-3.19108 17.123389,-6.38218 0,0 2.626893,2.41749 5.740223,0.1934 l 6.713149,-0.58019 27.630845,13.23264 c 0,0 62.879396,-30.22263 21.670687,-94.29186 z"
       id="path10"
       inkscape:connector-curvature="0"
       sodipodi:nodetypes="cccc"
       inkscape:export-xdpi="19.082861"
       inkscape:export-ydpi="19.082861" />
    <path
       style="color:#000000;font-style:normal;font-variant:normal;font-weight:normal;font-stretch:normal;font-size:medium;line-height:normal;font-family:sans-serif;font-variant-ligatures:normal;font-variant-position:normal;font-variant-caps:normal;font-variant-numeric:normal;font-variant-alternates:normal;font-feature-settings:normal;text-indent:0;text-align:start;text-decoration:none;text-decoration-line:none;text-decoration-style:solid;text-decoration-color:#000000;letter-spacing:normal;word-spacing:normal;text-transform:none;writing-mode:lr-tb;direction:ltr;text-orientation:mixed;dominant-baseline:auto;baseline-shift:baseline;text-anchor:start;white-space:normal;shape-padding:0;clip-rule:nonzero;display:inline;overflow:visible;visibility:visible;opacity:1;isolation:auto;mix-blend-mode:normal;color-interpolation:sRGB;color-interpolation-filters:linearRGB;solid-color:#000000;solid-opacity:1;vector-effect:none;fill:#000000;fill-opacity:1;fill-rule:nonzero;stroke:none;stroke-width:13.22916889;stroke-linecap:butt;stroke-linejoin:miter;stroke-miterlimit:4;stroke-dasharray:none;stroke-dashoffset:0;stroke-opacity:1;color-rendering:auto;image-rendering:auto;shape-rendering:auto;text-rendering:auto;enable-background:accumulate"
       d="m 789.21488,36.384742 c -26.58393,0 -48.19346,21.609508 -48.19346,48.193449 v 83.910139 c 0,26.58394 21.60953,48.19138 48.19346,48.19138 H 1075.846 c -3.0059,-4.21619 -5.9031,-8.62758 -8.6548,-13.22865 H 789.21488 c -19.48381,0 -34.96273,-15.47892 -34.96273,-34.96273 V 84.578191 c 0,-19.483809 15.47892,-34.963249 34.96273,-34.963249 h 263.94622 c 1.4291,-4.348332 3.0112,-8.758553 4.7532,-13.2302 z"
       id="rect4547"
       inkscape:connector-curvature="0"
       inkscape:export-xdpi="16.437418"
       inkscape:export-ydpi="16.437418" />
    <path
       style="color:#000000;font-style:normal;font-variant:normal;font-weight:normal;font-stretch:normal;font-size:medium;line-height:normal;font-family:sans-serif;font-variant-ligatures:normal;font-variant-position:normal;font-variant-caps:normal;font-variant-numeric:normal;font-variant-alternates:normal;font-feature-settings:normal;text-indent:0;text-align:start;text-decoration:none;text-decoration-line:none;text-decoration-style:solid;text-decoration-color:#000000;letter-spacing:normal;word-spacing:normal;text-transform:none;writing-mode:lr-tb;direction:ltr;text-orientation:mixed;dominant-baseline:auto;baseline-shift:baseline;text-anchor:start;white-space:normal;shape-padding:0;clip-rule:nonzero;display:inline;overflow:visible;visibility:visible;opacity:1;isolation:auto;mix-blend-mode:normal;color-interpolation:sRGB;color-interpolation-filters:linearRGB;solid-color:#000000;solid-opacity:1;vector-effect:none;fill:#000000;fill-opacity:1;fill-rule:nonzero;stroke:none;stroke-width:13.22916889;stroke-linecap:butt;stroke-linejoin:miter;stroke-miterlimit:4;stroke-dasharray:none;stroke-dashoffset:0;stroke-opacity:1;color-rendering:auto;image-rendering:auto;shape-rendering:auto;text-rendering:auto;enable-background:accumulate"
       d="m 789.21488,203.45106 c -26.58393,0 -48.19346,21.60743 -48.19346,48.19138 v 83.91014 c 0,26.58394 21.60953,48.19344 48.19346,48.19344 h 459.93742 c 26.5839,0 48.1913,-21.6095 48.1913,-48.19344 v -83.06161 c -4.9682,-2.27484 -8.948,-4.67701 -10.8975,-7.07916 0,0 -0.9569,0.89002 -2.6024,1.79782 0.179,1.45036 0.2718,2.9295 0.2718,4.43281 v 83.91014 c 0,19.48382 -15.4795,34.96271 -34.9632,34.96271 H 789.21488 c -19.48381,0 -34.96273,-15.47889 -34.96273,-34.96271 v -83.91014 c 0,-19.48381 15.47892,-34.96273 34.96273,-34.96273 H 1075.846 c -3.0059,-4.21619 -5.9031,-8.62758 -8.6548,-13.22865 z"
       id="rect4549"
       inkscape:connector-curvature="0"
       inkscape:export-xdpi="16.437418"
       inkscape:export-ydpi="16.437418" />
    <path
       style="color:#000000;font-style:normal;font-variant:normal;font-weight:normal;font-stretch:normal;font-size:medium;line-height:normal;font-family:sans-serif;font-variant-ligatures:normal;font-variant-position:normal;font-variant-caps:normal;font-variant-numeric:normal;font-variant-alternates:normal;font-feature-settings:normal;text-indent:0;text-align:start;text-decoration:none;text-decoration-line:none;text-decoration-style:solid;text-decoration-color:#000000;letter-spacing:normal;word-spacing:normal;text-transform:none;writing-mode:lr-tb;direction:ltr;text-orientation:mixed;dominant-baseline:auto;baseline-shift:baseline;text-anchor:start;white-space:normal;shape-padding:0;clip-rule:nonzero;display:inline;overflow:visible;visibility:visible;opacity:1;isolation:auto;mix-blend-mode:normal;color-interpolation:sRGB;color-interpolation-filters:linearRGB;solid-color:#000000;solid-opacity:1;vector-effect:none;fill:#000000;fill-opacity:1;fill-rule:nonzero;stroke:none;stroke-width:13.22916698;stroke-linecap:butt;stroke-linejoin:miter;stroke-miterlimit:4;stroke-dasharray:none;stroke-dashoffset:0;stroke-opacity:1;color-rendering:auto;image-rendering:auto;shape-rendering:auto;text-rendering:auto;enable-background:accumulate"
       d="m 789.21485,370.51556 c -26.58394,0 -48.19337,21.60943 -48.19337,48.19337 v 83.91017 c 0,26.58395 21.60943,48.19142 48.19337,48.19142 h 459.93755 c 26.584,0 48.1914,-21.60747 48.1915,-48.19142 v -83.91017 c 0,-26.58394 -21.6075,-48.19336 -48.1915,-48.19337 z m 0,13.23047 h 459.93755 c 19.4838,0 34.9629,15.4791 34.9629,34.9629 v 83.91017 c 0,19.48381 -15.4791,34.9629 -34.9629,34.9629 H 789.21485 c -19.48381,0 -34.9629,-15.47909 -34.9629,-34.9629 v -83.91017 c 0,-19.4838 15.47909,-34.9629 34.9629,-34.9629 z"
       id="rect4551"
       inkscape:connector-curvature="0"
       inkscape:export-xdpi="16.437418"
       inkscape:export-ydpi="16.437418" />
    <path
       style="color:#000000;font-style:normal;font-variant:normal;font-weight:normal;font-stretch:normal;font-size:medium;line-height:normal;font-family:sans-serif;font-variant-ligatures:normal;font-variant-position:normal;font-variant-caps:normal;font-variant-numeric:normal;font-variant-alternates:normal;font-feature-settings:normal;text-indent:0;text-align:start;text-decoration:none;text-decoration-line:none;text-decoration-style:solid;text-decoration-color:#000000;letter-spacing:normal;word-spacing:normal;text-transform:none;writing-mode:lr-tb;direction:ltr;text-orientation:mixed;dominant-baseline:auto;baseline-shift:baseline;text-anchor:start;white-space:normal;shape-padding:0;clip-rule:nonzero;display:inline;overflow:visible;visibility:visible;opacity:1;isolation:auto;mix-blend-mode:normal;color-interpolation:sRGB;color-interpolation-filters:linearRGB;solid-color:#000000;solid-opacity:1;vector-effect:none;fill:#000000;fill-opacity:1;fill-rule:nonzero;stroke:none;stroke-width:13.22916698;stroke-linecap:butt;stroke-linejoin:miter;stroke-miterlimit:4;stroke-dasharray:none;stroke-dashoffset:0;stroke-opacity:1;color-rendering:auto;image-rendering:auto;shape-rendering:auto;text-rendering:auto;enable-background:accumulate"
       d="m 789.21485,537.582 c -26.58394,0 -48.19337,21.60747 -48.19337,48.19142 v 83.91016 c 0,26.58395 21.60943,48.19337 48.19337,48.19337 h 459.93755 c 26.584,0 48.1914,-21.60942 48.1915,-48.19337 v -83.91016 c 0,-26.58395 -21.6075,-48.19142 -48.1915,-48.19142 z m 0,13.22852 h 459.93755 c 19.4838,0 34.9629,15.47908 34.9629,34.9629 v 83.91016 c 0,19.48382 -15.4791,34.9629 -34.9629,34.9629 H 789.21485 c -19.48381,0 -34.9629,-15.47908 -34.9629,-34.9629 v -83.91016 c 0,-19.48382 15.47909,-34.9629 34.9629,-34.9629 z"
       id="rect4553"
       inkscape:connector-curvature="0"
       inkscape:export-xdpi="16.437418"
       inkscape:export-ydpi="16.437418" />
    <path
       inkscape:export-ydpi="16.437418"
       inkscape:export-xdpi="16.437418"
       sodipodi:nodetypes="cccccccccccccccccc"
       inkscape:connector-curvature="0"
       id="path4555"
       d="m 1087.3707,-20.90405 c 74.5156,-70.65206 144.3741,-38.456204 144.3741,-38.456204 25.5038,-2.01223 47.9029,11.849912 47.9029,11.849912 41.0279,12.073411 54.7777,48.9645369 54.7777,48.9645369 22.8428,12.0734251 25.2824,47.8466461 25.2824,47.8466461 1.3303,10.508345 25.282,26.494503 25.282,26.494503 37.9228,17.998358 37.9228,20.345977 37.9228,20.345977 12.4194,10.284789 46.9053,27.947829 46.9053,27.947829 0,0 9.4254,8.94326 1.9958,23.14074 0,0 -5.3416,12.96809 -15.378,26.88064 0,0 -7.684,3.63617 -10.9772,14.07058 0,0 -9.7229,24.18881 -55.5134,27.50878 0,0 10.0366,26.56024 -10.9769,43.95088 0,0 -13.4861,8.22107 -37.3225,6.64006 -21.039,-16.67173 -50.0131,-23.06071 -63.5477,-22.10726 l -30.4608,5.85368 -90.4081,37.38882 c 0,0 -202.7005,-98.82345 -69.8584,-308.32012 z"
       style="fill:none;stroke:#000000;stroke-width:13.22916698;stroke-linecap:butt;stroke-linejoin:miter;stroke-miterlimit:4;stroke-dasharray:none;stroke-opacity:1" />
    <text
       xml:space="preserve"
       style="font-style:normal;font-weight:normal;font-size:50.79999924px;line-height:1.25;font-family:sans-serif;letter-spacing:0px;word-spacing:0px;fill:#000000;fill-opacity:1;stroke:none;stroke-width:0.26458332"
       x="866.42297"
       y="479.13016"
       id="text4645"
       inkscape:export-xdpi="16.437418"
       inkscape:export-ydpi="16.437418"><tspan
         sodipodi:role="line"
         id="tspan4643"
         x="866.42297"
         y="479.13016"
         style="font-size:50.79999924px;stroke-width:0.26458332">NAME HERE</tspan></text>
    <text
       id="text4649"
       y="479.13074"
       x="-40.719448"
       style="font-style:normal;font-weight:normal;font-size:50.79999924px;line-height:1.25;font-family:sans-serif;letter-spacing:0px;word-spacing:0px;fill:#000000;fill-opacity:1;stroke:none;stroke-width:0.26458332"
       xml:space="preserve"
       inkscape:export-xdpi="19.082861"
       inkscape:export-ydpi="19.082861"><tspan
         style="font-size:50.79999924px;stroke-width:0.26458332"
         y="479.13074"
         x="-40.719448"
         id="tspan4647"
         sodipodi:role="line">NAME HERE</tspan></text>
    <path
       inkscape:export-ydpi="16.437418"
       inkscape:export-xdpi="16.437418"
       inkscape:connector-curvature="0"
       id="path4689"
       d="m 1329.407,61.737208 c 0,0 -11.5407,-77.647413 -50.0103,-23.856896 0,0 9.0679,29.033384 50.0103,23.856896 z"
       style="fill:none;stroke:#000000;stroke-width:10.58333302;stroke-linecap:butt;stroke-linejoin:miter;stroke-miterlimit:4;stroke-dasharray:none;stroke-opacity:1"
       inkscape:transform-center-x="-0.28600044"
       inkscape:transform-center-y="0.75811556" />
  </g>
</svg>
