<?xml version="1.0" encoding="UTF-8" standalone="no"?>
<!-- Created with Inkscape (http://www.inkscape.org/) -->

<svg
   xmlns:dc="http://purl.org/dc/elements/1.1/"
   xmlns:cc="http://creativecommons.org/ns#"
   xmlns:rdf="http://www.w3.org/1999/02/22-rdf-syntax-ns#"
   xmlns:svg="http://www.w3.org/2000/svg"
   xmlns="http://www.w3.org/2000/svg"
   xmlns:sodipodi="http://sodipodi.sourceforge.net/DTD/sodipodi-0.dtd"
   xmlns:inkscape="http://www.inkscape.org/namespaces/inkscape"
   width="793.70081"
   height="1122.5197"
   viewBox="0 0 210 297"
   version="1.1"
   id="svg8"
   inkscape:version="0.92.3 (2405546, 2018-03-11)"
   sodipodi:docname="Icon.svg">
  <defs
     id="defs2" />
  <sodipodi:namedview
     id="base"
     pagecolor="#ffffff"
     bordercolor="#666666"
     borderopacity="1.0"
     inkscape:pageopacity="0.0"
     inkscape:pageshadow="2"
     inkscape:zoom="0.061871843"
     inkscape:cx="2300.4901"
     inkscape:cy="-143.24507"
     inkscape:document-units="px"
     inkscape:current-layer="layer1"
     showgrid="false"
     inkscape:pagecheckerboard="true"
     showborder="false"
     units="px"
     inkscape:window-width="1440"
     inkscape:window-height="837"
     inkscape:window-x="-8"
     inkscape:window-y="-8"
     inkscape:window-maximized="1" />
  <metadata
     id="metadata5">
    <rdf:RDF>
      <cc:Work
         rdf:about="">
        <dc:format>image/svg+xml</dc:format>
        <dc:type
           rdf:resource="http://purl.org/dc/dcmitype/StillImage" />
        <dc:title />
      </cc:Work>
    </rdf:RDF>
  </metadata>
  <g
     inkscape:label="Layer 1"
     inkscape:groupmode="layer"
     id="layer1">
    <rect
       style="opacity:1;fill:none;stroke:#000000;stroke-width:39.6875001;stroke-miterlimit:4;stroke-dasharray:none"
       id="rect815"
       width="543.09235"
       height="167.06548"
       x="-159.50595"
       y="42.999992"
       ry="41.577381"
       inkscape:export-xdpi="9.3597383"
       inkscape:export-ydpi="9.3597383" />
    <rect
       ry="41.577381"
       y="210.06546"
       x="-159.50595"
       height="167.06548"
       width="543.09235"
       id="rect817"
       style="opacity:1;fill:none;stroke:#000000;stroke-width:39.6875001;stroke-miterlimit:4;stroke-dasharray:none"
       inkscape:export-xdpi="9.3597383"
       inkscape:export-ydpi="9.3597383" />
    <rect
       style="opacity:1;fill:none;stroke:#000000;stroke-width:39.6875001;stroke-miterlimit:4;stroke-dasharray:none"
       id="rect819"
       width="543.09235"
       height="167.06548"
       x="-159.50595"
       y="377.13092"
       ry="41.577381"
       inkscape:export-xdpi="9.3597383"
       inkscape:export-ydpi="9.3597383" />
    <rect
       ry="41.577381"
       y="544.19641"
       x="-159.50595"
       height="167.06548"
       width="543.09235"
       id="rect821"
       style="opacity:1;fill:none;stroke:#000000;stroke-width:39.6875001;stroke-miterlimit:4;stroke-dasharray:none"
       inkscape:export-xdpi="9.3597383"
       inkscape:export-ydpi="9.3597383" />
    <path
       style="color:#000000;font-style:normal;font-variant:normal;font-weight:normal;font-stretch:normal;font-size:medium;line-height:normal;font-family:sans-serif;font-variant-ligatures:normal;font-variant-position:normal;font-variant-caps:normal;font-variant-numeric:normal;font-variant-alternates:normal;font-feature-settings:normal;text-indent:0;text-align:start;text-decoration:none;text-decoration-line:none;text-decoration-style:solid;text-decoration-color:#000000;letter-spacing:normal;word-spacing:normal;text-transform:none;writing-mode:lr-tb;direction:ltr;text-orientation:mixed;dominant-baseline:auto;baseline-shift:baseline;text-anchor:start;white-space:normal;shape-padding:0;clip-rule:nonzero;display:inline;overflow:visible;visibility:visible;opacity:1;isolation:auto;mix-blend-mode:normal;color-interpolation:sRGB;color-interpolation-filters:linearRGB;solid-color:#000000;solid-opacity:1;vector-effect:none;fill:#000000;fill-opacity:1;fill-rule:nonzero;stroke:#000000;stroke-width:100.00000152;stroke-linecap:butt;stroke-linejoin:miter;stroke-miterlimit:4;stroke-dasharray:none;stroke-dashoffset:0;stroke-opacity:1;color-rendering:auto;image-rendering:auto;shape-rendering:auto;text-rendering:auto;enable-background:accumulate"
       d="M 2982.8594 137.51758 C 2882.3847 137.51758 2800.7109 219.1913 2800.7109 319.66602 L 2800.7109 636.80664 C 2800.7109 737.28137 2882.3847 818.94727 2982.8594 818.94727 L 4066.1895 818.94727 C 4054.8286 803.01205 4043.8785 786.3391 4033.4785 768.94922 L 2982.8594 768.94922 C 2909.2198 768.94922 2850.7168 710.44624 2850.7168 636.80664 L 2850.7168 319.66602 C 2850.7168 246.02644 2909.2198 187.52148 2982.8594 187.52148 L 3980.4512 187.52148 C 3985.8527 171.08684 3991.8323 154.41829 3998.416 137.51758 L 2982.8594 137.51758 z "
       transform="scale(0.26458333)"
       id="rect4547"
       inkscape:export-xdpi="8.083559"
       inkscape:export-ydpi="8.083559" />
    <path
       style="color:#000000;font-style:normal;font-variant:normal;font-weight:normal;font-stretch:normal;font-size:medium;line-height:normal;font-family:sans-serif;font-variant-ligatures:normal;font-variant-position:normal;font-variant-caps:normal;font-variant-numeric:normal;font-variant-alternates:normal;font-feature-settings:normal;text-indent:0;text-align:start;text-decoration:none;text-decoration-line:none;text-decoration-style:solid;text-decoration-color:#000000;letter-spacing:normal;word-spacing:normal;text-transform:none;writing-mode:lr-tb;direction:ltr;text-orientation:mixed;dominant-baseline:auto;baseline-shift:baseline;text-anchor:start;white-space:normal;shape-padding:0;clip-rule:nonzero;display:inline;overflow:visible;visibility:visible;opacity:1;isolation:auto;mix-blend-mode:normal;color-interpolation:sRGB;color-interpolation-filters:linearRGB;solid-color:#000000;solid-opacity:1;vector-effect:none;fill:#000000;fill-opacity:1;fill-rule:nonzero;stroke:#000000;stroke-width:100.00000152;stroke-linecap:butt;stroke-linejoin:miter;stroke-miterlimit:4;stroke-dasharray:none;stroke-dashoffset:0;stroke-opacity:1;color-rendering:auto;image-rendering:auto;shape-rendering:auto;text-rendering:auto;enable-background:accumulate"
       d="M 2982.8594 768.94922 C 2882.3847 768.94922 2800.7109 850.61511 2800.7109 951.08984 L 2800.7109 1268.2305 C 2800.7109 1368.7052 2882.3847 1450.3789 2982.8594 1450.3789 L 4721.2051 1450.3789 C 4821.68 1450.3789 4903.3457 1368.7052 4903.3457 1268.2305 L 4903.3457 954.29688 C 4884.568 945.69908 4869.5264 936.62 4862.1582 927.54102 C 4862.1582 927.54102 4858.5416 930.90488 4852.3223 934.33594 C 4852.9989 939.81761 4853.3496 945.40804 4853.3496 951.08984 L 4853.3496 1268.2305 C 4853.3496 1341.8701 4794.8446 1400.373 4721.2051 1400.373 L 2982.8594 1400.373 C 2909.2198 1400.373 2850.7168 1341.8701 2850.7168 1268.2305 L 2850.7168 951.08984 C 2850.7168 877.45025 2909.2198 818.94727 2982.8594 818.94727 L 4066.1895 818.94727 C 4054.8286 803.01205 4043.8785 786.3391 4033.4785 768.94922 L 2982.8594 768.94922 z "
       transform="scale(0.26458333)"
       id="rect4549"
       inkscape:export-xdpi="8.083559"
       inkscape:export-ydpi="8.083559" />
    <path
       style="color:#000000;font-style:normal;font-variant:normal;font-weight:normal;font-stretch:normal;font-size:medium;line-height:normal;font-family:sans-serif;font-variant-ligatures:normal;font-variant-position:normal;font-variant-caps:normal;font-variant-numeric:normal;font-variant-alternates:normal;font-feature-settings:normal;text-indent:0;text-align:start;text-decoration:none;text-decoration-line:none;text-decoration-style:solid;text-decoration-color:#000000;letter-spacing:normal;word-spacing:normal;text-transform:none;writing-mode:lr-tb;direction:ltr;text-orientation:mixed;dominant-baseline:auto;baseline-shift:baseline;text-anchor:start;white-space:normal;shape-padding:0;clip-rule:nonzero;display:inline;overflow:visible;visibility:visible;opacity:1;isolation:auto;mix-blend-mode:normal;color-interpolation:sRGB;color-interpolation-filters:linearRGB;solid-color:#000000;solid-opacity:1;vector-effect:none;fill:#000000;fill-opacity:1;fill-rule:nonzero;stroke:#000000;stroke-width:26.4583334;stroke-linecap:butt;stroke-linejoin:miter;stroke-miterlimit:4;stroke-dasharray:none;stroke-dashoffset:0;stroke-opacity:1;color-rendering:auto;image-rendering:auto;shape-rendering:auto;text-rendering:auto;enable-background:accumulate"
       d="m 789.21484,370.51562 c -26.58393,0 -48.19336,21.60943 -48.19336,48.19336 v 83.91016 c 0,26.58394 21.60943,48.19141 48.19336,48.19141 h 459.93746 c 26.584,0 48.1914,-21.60747 48.1915,-48.19141 v -83.91016 c 0,-26.58393 -21.6075,-48.19335 -48.1915,-48.19336 z m 0,13.23047 h 459.93746 c 19.4838,0 34.9629,15.47909 34.9629,34.96289 v 83.91016 c 0,19.4838 -15.4791,34.96289 -34.9629,34.96289 H 789.21484 c -19.4838,0 -34.96289,-15.47909 -34.96289,-34.96289 v -83.91016 c 0,-19.4838 15.47909,-34.96289 34.96289,-34.96289 z"
       id="rect4551"
       inkscape:connector-curvature="0"
       inkscape:export-xdpi="8.083559"
       inkscape:export-ydpi="8.083559" />
    <path
       style="color:#000000;font-style:normal;font-variant:normal;font-weight:normal;font-stretch:normal;font-size:medium;line-height:normal;font-family:sans-serif;font-variant-ligatures:normal;font-variant-position:normal;font-variant-caps:normal;font-variant-numeric:normal;font-variant-alternates:normal;font-feature-settings:normal;text-indent:0;text-align:start;text-decoration:none;text-decoration-line:none;text-decoration-style:solid;text-decoration-color:#000000;letter-spacing:normal;word-spacing:normal;text-transform:none;writing-mode:lr-tb;direction:ltr;text-orientation:mixed;dominant-baseline:auto;baseline-shift:baseline;text-anchor:start;white-space:normal;shape-padding:0;clip-rule:nonzero;display:inline;overflow:visible;visibility:visible;opacity:1;isolation:auto;mix-blend-mode:normal;color-interpolation:sRGB;color-interpolation-filters:linearRGB;solid-color:#000000;solid-opacity:1;vector-effect:none;fill:#000000;fill-opacity:1;fill-rule:nonzero;stroke:#000000;stroke-width:26.4583334;stroke-linecap:butt;stroke-linejoin:miter;stroke-miterlimit:4;stroke-dasharray:none;stroke-dashoffset:0;stroke-opacity:1;color-rendering:auto;image-rendering:auto;shape-rendering:auto;text-rendering:auto;enable-background:accumulate"
       d="m 789.21484,537.58203 c -26.58393,0 -48.19336,21.60747 -48.19336,48.19141 v 83.91015 c 0,26.58394 21.60943,48.19336 48.19336,48.19336 h 459.93746 c 26.584,0 48.1914,-21.60942 48.1915,-48.19336 v -83.91015 c 0,-26.58394 -21.6075,-48.19141 -48.1915,-48.19141 z m 0,13.22852 h 459.93746 c 19.4838,0 34.9629,15.47908 34.9629,34.96289 v 83.91015 c 0,19.48381 -15.4791,34.96289 -34.9629,34.96289 H 789.21484 c -19.4838,0 -34.96289,-15.47908 -34.96289,-34.96289 v -83.91015 c 0,-19.48381 15.47909,-34.96289 34.96289,-34.96289 z"
       id="rect4553"
       inkscape:connector-curvature="0"
       inkscape:export-xdpi="8.083559"
       inkscape:export-ydpi="8.083559" />
    <path
       inkscape:export-ydpi="8.083559"
       inkscape:export-xdpi="8.083559"
       sodipodi:nodetypes="cccccccccccccccccc"
       inkscape:connector-curvature="0"
       id="path4555"
       d="m 1087.3706,-20.903923 c 74.5156,-70.652047 144.3741,-38.456197 144.3741,-38.456197 25.5038,-2.01223 47.9029,11.84991 47.9029,11.84991 41.0279,12.073409 54.7777,48.9645284 54.7777,48.9645284 22.8428,12.0734226 25.2824,47.8466376 25.2824,47.8466376 1.3303,10.508343 25.282,26.494499 25.282,26.494499 37.9228,17.998355 37.9228,20.345973 37.9228,20.345973 12.4194,10.284792 46.9053,27.947822 46.9053,27.947822 0,0 9.4254,8.94326 1.9958,23.14074 0,0 -5.3416,12.96809 -15.378,26.88063 0,0 -7.684,3.63617 -10.9772,14.07058 0,0 -9.7229,24.18881 -55.5134,27.50878 0,0 10.0366,26.56023 -10.9769,43.95087 0,0 -13.4861,8.22107 -37.3225,6.64006 -21.039,-16.67173 -50.0131,-23.06071 -63.5477,-22.10726 l -30.4608,5.85368 -90.4081,37.38881 c 0,0 -202.70044,-98.82343 -69.8584,-308.320063 z"
       style="fill:none;stroke:#000000;stroke-width:39.6875001;stroke-linecap:butt;stroke-linejoin:miter;stroke-miterlimit:4;stroke-dasharray:none;stroke-opacity:1" />
    <circle
       style="opacity:1;fill:none;stroke:#000000;stroke-width:39.6875;stroke-miterlimit:4;stroke-dasharray:none"
       id="path827"
       cx="-70.900253"
       cy="126.53273"
       r="31.642555"
       inkscape:export-xdpi="9.3597383"
       inkscape:export-ydpi="9.3597383" />
  </g>
</svg>
