<?xml version="1.0" encoding="UTF-8" standalone="no"?>
<!-- Created with Inkscape (http://www.inkscape.org/) -->

<svg
   xmlns:dc="http://purl.org/dc/elements/1.1/"
   xmlns:cc="http://creativecommons.org/ns#"
   xmlns:rdf="http://www.w3.org/1999/02/22-rdf-syntax-ns#"
   xmlns:svg="http://www.w3.org/2000/svg"
   xmlns="http://www.w3.org/2000/svg"
   xmlns:sodipodi="http://sodipodi.sourceforge.net/DTD/sodipodi-0.dtd"
   xmlns:inkscape="http://www.inkscape.org/namespaces/inkscape"
   width="793.70081"
   height="1122.5197"
   viewBox="0 0 210 297"
   version="1.1"
   id="svg8"
   inkscape:version="0.92.3 (2405546, 2018-03-11)"
   sodipodi:docname="Icon.svg"
   inkscape:export-filename="C:\Users\5cstephe\source\repos\TrialManager\Branding\Concepts\SprintOne\Icon_Two.png"
   inkscape:export-xdpi="96"
   inkscape:export-ydpi="96">
  <defs
     id="defs2" />
  <sodipodi:namedview
     id="base"
     pagecolor="#ffffff"
     bordercolor="#666666"
     borderopacity="1.0"
     inkscape:pageopacity="0.0"
     inkscape:pageshadow="2"
     inkscape:zoom="1.7639788"
     inkscape:cx="149.95973"
     inkscape:cy="76.304707"
     inkscape:document-units="px"
     inkscape:current-layer="layer1"
     showgrid="false"
     inkscape:window-width="1440"
     inkscape:window-height="837"
     inkscape:window-x="-8"
     inkscape:window-y="-8"
     inkscape:window-maximized="1"
     units="px"
     inkscape:pagecheckerboard="true"
     showborder="false" />
  <metadata
     id="metadata5">
    <rdf:RDF>
      <cc:Work
         rdf:about="">
        <dc:format>image/svg+xml</dc:format>
        <dc:type
           rdf:resource="http://purl.org/dc/dcmitype/StillImage" />
        <dc:title />
      </cc:Work>
    </rdf:RDF>
  </metadata>
  <g
     inkscape:label="Layer 1"
     inkscape:groupmode="layer"
     id="layer1">
    <path
       style="fill:none;stroke:#000000;stroke-width:9.26041698;stroke-linecap:butt;stroke-linejoin:miter;stroke-miterlimit:4;stroke-dasharray:none;stroke-opacity:1"
       d="m 52.990315,255.48082 c -10.114429,-9.40614 -19.596703,-5.11979 -19.596703,-5.11979 -3.461783,-0.2679 -6.502133,1.57761 -6.502133,1.57761 -5.568955,1.60737 -7.435306,6.51881 -7.435306,6.51881 -3.100553,1.60738 -3.43168,6.36998 -3.43168,6.36998 -0.180615,1.39902 -3.43168,3.52731 -3.43168,3.52731 -5.1475212,2.39618 -5.1475212,2.70873 -5.1475212,2.70873 -1.6857374,1.36924 -6.3666713,3.72078 -6.3666713,3.72078 0,0 -1.27935535,1.19065 -0.27092203,3.08081 0,0 0.72506723,1.72649 2.08734893,3.5787 3.0068436,3.41089 8.5484166,2.60427 12.0958336,2.92202 0,0 -4.432998,6.14964 -1.58072,8.46491 0,0 5.269768,0.60825 8.505187,0.39777 3.279843,-1.94068 5.937529,-2.15398 9.502476,-2.4605 l 12.090215,5.76051 c 0,0 27.513648,-13.15669 9.482276,-41.04768 z"
       id="path10"
       inkscape:connector-curvature="0"
       sodipodi:nodetypes="ccccccccccccccccc"
       inkscape:export-xdpi="96"
       inkscape:export-ydpi="96" />
  </g>
</svg>
